<?xml version="1.0" standalone="no"?>
<!DOCTYPE svg PUBLIC "-//W3C//DTD SVG 20010904//EN"
 "http://www.w3.org/TR/2001/REC-SVG-20010904/DTD/svg10.dtd">
<svg version="1.0" xmlns="http://www.w3.org/2000/svg"
 width="512.000000pt" height="512.000000pt" viewBox="0 0 512.000000 512.000000"
 preserveAspectRatio="xMidYMid meet">

<g transform="translate(0.000000,512.000000) scale(0.100000,-0.100000)"
fill="#F2F2DD" stroke="none">
<path d="M747 4469 c-162 -38 -297 -178 -337 -348 -24 -103 4 -245 68 -339 15
-22 363 -410 774 -862 l748 -822 2 -798 c3 -789 3 -799 24 -826 49 -67 130
-91 195 -60 19 9 221 166 449 349 299 239 420 342 432 367 16 32 18 77 18 502
l0 466 663 729 c364 401 707 778 761 838 110 122 151 194 169 300 29 171 -60
360 -214 452 -112 67 11 63 -1944 62 -1002 -1 -1786 -5 -1808 -10z m3580 -326
c50 -23 80 -91 64 -143 -8 -27 -204 -250 -782 -886 -424 -467 -778 -860 -788
-874 -14 -21 -17 -80 -21 -494 l-5 -469 -230 -188 c-126 -103 -233 -188 -237
-188 -5 -1 -8 290 -8 647 -1 591 -2 650 -18 678 -9 18 -361 411 -782 874 -421
463 -773 856 -782 873 -34 60 -15 131 45 167 31 20 64 20 1770 20 1607 0 1742
-1 1774 -17z"/>
</g>
</svg>
