<?xml version="1.0" standalone="no"?>
<!DOCTYPE svg PUBLIC "-//W3C//DTD SVG 20010904//EN"
 "http://www.w3.org/TR/2001/REC-SVG-20010904/DTD/svg10.dtd">
<svg version="1.0" xmlns="http://www.w3.org/2000/svg"
 width="512.000000pt" height="512.000000pt" viewBox="0 0 512.000000 512.000000"
 preserveAspectRatio="xMidYMid meet">

<g transform="translate(0.000000,512.000000) scale(0.100000,-0.100000)"
fill="#0e7b99e5" stroke="none">
<path d="M4055 5100 c-53 -26 -3679 -3652 -3695 -3695 -29 -76 -360 -1237
-360 -1260 0 -66 79 -145 145 -145 23 0 1184 331 1260 360 18 7 735 716 1862
1843 1988 1989 1866 1859 1849 1954 -7 34 -58 89 -454 485 -245 246 -461 455
-478 463 -43 20 -81 19 -129 -5z m385 -665 l315 -315 -220 -220 -220 -220
-317 317 -318 318 217 217 c120 120 220 218 223 218 3 0 147 -142 320 -315z
m-1612 -2242 l-1273 -1273 -317 317 -318 318 1272 1272 1273 1273 317 -317
318 -318 -1272 -1272z m-1798 -1168 l315 -315 -41 -41 c-41 -40 -43 -41 -485
-169 -244 -71 -444 -128 -446 -127 -1 2 56 202 127 446 124 429 130 445 166
482 21 22 41 39 44 39 3 0 147 -142 320 -315z"/>
</g>
</svg>
