<?xml version="1.0" standalone="no"?>
<!DOCTYPE svg PUBLIC "-//W3C//DTD SVG 20010904//EN"
 "http://www.w3.org/TR/2001/REC-SVG-20010904/DTD/svg10.dtd">
<svg version="1.0" xmlns="http://www.w3.org/2000/svg"
 width="512.000000pt" height="512.000000pt" viewBox="0 0 512.000000 512.000000"
 preserveAspectRatio="xMidYMid meet">

<g transform="translate(0.000000,512.000000) scale(0.100000,-0.100000)"
fill="#F2F2DD" stroke="none">
<path d="M860 5097 c-57 -30 -80 -74 -80 -154 0 -34 -3 -68 -6 -77 -6 -16 -85
-56 -111 -56 -8 0 -38 21 -66 46 -59 53 -83 64 -138 64 -54 0 -72 -11 -157
-94 -85 -82 -102 -110 -102 -165 0 -55 11 -79 64 -138 25 -28 46 -58 46 -66 0
-26 -40 -105 -56 -111 -9 -3 -43 -6 -77 -6 -80 0 -124 -23 -154 -80 -32 -60
-34 -232 -3 -295 28 -57 80 -85 158 -85 80 0 91 -5 113 -57 26 -62 24 -74 -21
-118 -49 -48 -70 -91 -70 -145 0 -55 10 -73 94 -158 83 -86 110 -102 169 -102
47 0 111 34 156 84 29 31 45 32 105 6 50 -21 53 -27 58 -130 4 -78 24 -110 85
-141 38 -18 57 -20 157 -17 97 2 119 6 143 24 53 39 73 81 73 150 0 83 5 93
57 115 59 25 75 24 104 -7 45 -50 109 -84 157 -84 58 0 74 10 160 94 86 83
102 110 102 169 0 47 -34 111 -84 156 -31 29 -32 45 -7 104 22 52 32 57 115
57 69 0 111 20 150 73 18 24 22 46 24 143 3 100 1 119 -17 157 -31 61 -63 81
-141 85 -103 5 -109 8 -130 58 -26 60 -25 76 6 105 50 45 84 109 84 156 0 59
-16 86 -102 169 -85 84 -103 94 -158 94 -54 0 -97 -21 -145 -70 -44 -45 -56
-47 -118 -21 -52 22 -57 33 -57 113 0 78 -28 130 -85 158 -63 31 -235 29 -295
-3z m274 -706 c172 -76 234 -289 130 -448 -132 -203 -437 -176 -537 46 -29 63
-29 179 0 242 71 157 253 229 407 160z"/>
<path d="M2951 3866 c-48 -17 -108 -71 -133 -119 -19 -36 -23 -65 -28 -187 -7
-179 -11 -188 -125 -241 -195 -91 -217 -89 -344 34 -133 128 -198 154 -307
122 -55 -16 -69 -27 -205 -164 -137 -136 -148 -150 -164 -205 -32 -109 -7
-172 125 -310 64 -67 90 -103 95 -127 7 -40 -10 -97 -64 -214 -53 -114 -62
-118 -241 -125 -158 -7 -197 -18 -252 -77 -59 -62 -68 -100 -68 -307 0 -115 5
-204 12 -227 16 -55 73 -118 132 -145 45 -21 66 -24 176 -24 166 0 181 -7 236
-118 55 -110 78 -183 69 -224 -5 -21 -37 -63 -96 -124 -131 -138 -156 -201
-124 -310 16 -55 27 -69 163 -205 128 -128 154 -148 201 -164 107 -35 177 -8
308 118 132 127 150 129 348 37 114 -52 118 -61 125 -240 7 -166 19 -202 90
-262 59 -51 95 -58 300 -58 220 0 247 6 315 75 64 63 75 100 75 249 0 160 17
188 143 245 182 82 200 79 331 -46 132 -127 200 -153 307 -118 47 15 72 36
200 164 128 128 149 153 164 200 34 106 6 179 -121 311 -120 124 -123 142 -53
304 65 151 89 166 255 166 149 0 186 11 249 75 69 68 75 95 75 315 0 205 -7
241 -58 300 -60 71 -96 83 -262 90 -179 7 -188 11 -240 125 -93 199 -91 213
35 346 130 137 152 195 120 305 -16 55 -27 69 -164 205 -136 137 -150 148
-205 164 -109 32 -171 7 -305 -121 -107 -102 -136 -114 -216 -88 -30 9 -91 35
-137 58 -111 55 -118 70 -118 236 0 110 -3 131 -24 176 -27 59 -90 116 -145
132 -52 16 -405 15 -450 -2z m378 -1248 c252 -48 475 -271 532 -533 14 -67 14
-217 0 -288 -56 -266 -272 -482 -538 -538 -71 -14 -221 -14 -288 0 -262 57
-479 274 -536 536 -14 68 -14 217 1 290 28 137 131 305 239 391 171 137 369
184 590 142z"/>
</g>
</svg>
