<svg width="32" height="33" viewBox="0 0 32 33" fill="none" xmlns="http://www.w3.org/2000/svg">
<path d="M11.4233 0.0194359C8.20596 0.413773 5.77735 1.55923 3.6617 3.67488C1.75887 5.57771 0.588376 7.86236 0.112668 10.5914C-0.0375559 11.4615 -0.0375559 13.5396 0.112668 14.4096C0.588376 17.1387 1.75887 19.4233 3.6617 21.3262C5.56453 23.229 7.84918 24.3995 10.5782 24.8752C11.4483 25.0254 13.5264 25.0254 14.3964 24.8752C16.1177 24.5747 17.7139 23.9864 18.9845 23.1852L19.3851 22.9348L23.7103 27.26C28.3797 31.9169 28.2733 31.823 29.0996 31.9732C30.7583 32.28 32.2668 30.7715 31.9601 29.1127C31.8098 28.2865 31.9037 28.3929 27.2468 23.7235L22.9216 19.3983L23.172 18.9977C23.9732 17.727 24.5616 16.1309 24.862 14.4096C25.0122 13.5396 25.0122 11.4615 24.862 10.5914C24.3863 7.86236 23.2158 5.57771 21.313 3.67488C19.4227 1.77831 17.0942 0.582775 14.4277 0.138363C13.8581 0.0382137 11.8802 -0.0368958 11.4233 0.0194359ZM14.121 1.35893C18.6402 2.04119 22.3145 5.37115 23.4036 9.77771C23.6164 10.6415 23.6853 11.1798 23.7291 12.175C23.8668 15.4048 22.4396 18.7223 19.9672 20.9005C17.138 23.398 13.4137 24.3181 9.76453 23.4168C7.76781 22.9223 6.00894 21.9208 4.538 20.4498C2.80417 18.716 1.73383 16.5878 1.33949 14.0966C1.23934 13.4519 1.23934 11.5491 1.33949 10.9044C1.73383 8.41318 2.80417 6.28501 4.538 4.55118C6.46587 2.62331 8.7693 1.55923 11.6423 1.2713C12.0554 1.22748 13.6203 1.28382 14.121 1.35893ZM23.0906 21.3199L23.9607 22.1962L23.5288 22.6531C23.2909 22.9098 22.8903 23.3104 22.6399 23.5482L22.183 23.9801L21.3005 23.0975L20.4241 22.215L21.2879 21.3387C21.7699 20.8567 22.1705 20.4561 22.1893 20.4561C22.2081 20.4498 22.6149 20.8442 23.0906 21.3199ZM30.5642 28.8624C30.7082 29.0689 30.7332 29.1753 30.7332 29.5259C30.7332 29.8639 30.7019 29.9828 30.5768 30.1706C30.245 30.6588 29.7005 30.8654 29.1371 30.7151C28.8805 30.6463 28.5738 30.3583 25.9636 27.7607L23.0781 24.8814L23.9607 23.9864L24.8495 23.0913L27.6224 25.8579C29.1434 27.3727 30.4703 28.7309 30.5642 28.8624Z" fill="#EAE5E5"/>
</svg>
