<?xml version="1.0" standalone="no"?>
<!DOCTYPE svg PUBLIC "-//W3C//DTD SVG 20010904//EN"
 "http://www.w3.org/TR/2001/REC-SVG-20010904/DTD/svg10.dtd">
<svg version="1.0" xmlns="http://www.w3.org/2000/svg"
 width="512.000000pt" height="512.000000pt" viewBox="0 0 512.000000 512.000000"
 preserveAspectRatio="xMidYMid meet">

<g transform="translate(0.000000,512.000000) scale(0.100000,-0.100000)"
fill="#F2F2DD" stroke="none">
<path d="M2396 5110 c-584 -92 -1006 -579 -1006 -1160 0 -506 323 -953 805
-1114 225 -75 505 -75 730 0 169 56 310 141 438 263 360 342 466 863 270 1318
-146 335 -431 574 -802 670 -108 28 -330 39 -435 23z m399 -345 c236 -69 424
-228 529 -448 57 -118 76 -196 83 -333 21 -415 -265 -783 -677 -870 -84 -18
-257 -18 -343 1 -335 71 -594 335 -663 675 -20 100 -15 278 11 375 25 95 108
253 173 331 126 150 314 257 519 294 89 16 269 4 368 -25z"/>
<path d="M1650 2699 c-320 -37 -631 -171 -855 -370 -237 -210 -384 -465 -440
-761 -13 -72 -15 -176 -13 -729 l3 -646 30 -48 c17 -27 50 -64 73 -82 89 -67
-59 -63 2112 -63 2171 0 2023 -4 2112 63 23 18 56 55 73 82 l30 48 3 646 c2
553 0 657 -13 729 -45 240 -150 451 -312 632 -258 287 -596 456 -1000 500
-122 13 -135 9 -243 -75 -173 -133 -419 -215 -650 -215 -231 0 -477 82 -650
215 -40 32 -88 64 -106 71 -36 15 -44 15 -154 3z m113 -362 c458 -322 1116
-327 1576 -13 84 58 85 58 140 51 241 -30 495 -152 675 -325 144 -139 235
-292 282 -478 24 -95 24 -95 24 -673 l0 -579 -1900 0 -1901 0 3 603 c3 537 5
608 21 661 119 400 455 693 897 781 104 21 116 19 183 -28z"/>
</g>
</svg>
